# Blender v2.78 (sub 0) OBJ File: 'hammer_3.blend'
# www.blender.org
mtllib hammer_3.mtl
o hammer_Cube
v 0.097548 0.000000 0.097548
v 0.141003 0.051584 0.141003
v 0.141003 0.281962 0.141003
v 0.116858 0.408655 0.116858
v 0.119276 0.051584 0.119275
v 0.095623 0.408655 0.095623
v 0.095623 0.281962 0.095623
v 0.116858 0.651171 0.116858
v 0.116858 0.555396 0.116858
v 0.095623 0.555396 0.095623
v 0.095623 0.651171 0.095623
v 0.116858 2.682511 0.116858
v 0.816428 2.809187 0.451227
v 0.816428 3.894706 0.451227
v 0.479188 3.894706 0.451227
v 0.479188 2.809187 0.451227
v 0.730266 2.809187 0.451227
v 0.730266 3.894706 0.451227
v 0.479188 2.782049 0.473788
v 0.730266 2.782049 0.473788
v 0.730266 3.921844 0.473788
v 0.479188 3.921844 0.473788
v 0.849700 2.809187 0.451227
v 0.849700 3.894706 0.451227
v 0.964005 2.809187 0.451227
v 0.964005 3.894706 0.451227
v 1.076168 2.878354 0.393724
v 1.076168 3.825539 0.393724
v 0.816428 2.839639 0.425910
v 0.816428 3.864254 0.425910
v 0.849700 2.839639 0.425910
v 0.849700 3.864254 0.425910
v 0.119797 2.823559 0.225613
v 0.119797 2.823557 0.338420
v 0.359391 2.823558 0.156338
v 0.119797 2.796610 0.338420
v 0.359391 2.796611 0.156338
v 0.239594 2.682510 0.156338
v 0.000000 0.000000 0.137954
v -0.097548 0.000000 0.097548
v 0.000000 0.051584 0.199408
v -0.141003 0.051584 0.141003
v 0.000000 0.281962 0.199408
v -0.141003 0.281962 0.141003
v -0.116858 0.408655 0.116858
v 0.000000 0.408655 0.165263
v -0.119276 0.051584 0.119275
v 0.000000 0.051584 0.168681
v 0.000000 0.408655 0.135231
v -0.095623 0.408655 0.095623
v -0.095623 0.281962 0.095623
v 0.000000 0.281962 0.135231
v -0.116858 0.651171 0.116858
v 0.000000 0.651171 0.165263
v 0.000000 0.555396 0.165263
v -0.116858 0.555396 0.116858
v -0.095623 0.555396 0.095623
v -0.095623 0.651171 0.095623
v 0.000000 0.651171 0.135231
v 0.000000 0.555396 0.135231
v -0.116858 2.682511 0.116858
v -0.816428 2.809187 0.451227
v -0.816428 3.894706 0.451227
v -0.479188 3.894706 0.451227
v -0.479188 2.809187 0.451227
v -0.730266 2.809187 0.451227
v -0.730266 3.894706 0.451227
v -0.479188 2.782049 0.473788
v -0.730266 2.782049 0.473788
v -0.730266 3.921844 0.473788
v -0.479188 3.921844 0.473788
v -0.849700 2.809187 0.451227
v -0.849700 3.894706 0.451227
v -0.964005 2.809187 0.451227
v -0.964005 3.894706 0.451227
v -1.076168 2.878354 0.393724
v -1.076168 3.825539 0.393724
v -0.816428 2.839639 0.425910
v -0.816428 3.864254 0.425910
v -0.849700 2.839639 0.425910
v -0.849700 3.864254 0.425910
v -0.119797 2.823557 0.338420
v -0.359391 2.823558 0.156338
v 0.000000 2.682511 0.165263
v 0.119797 2.682512 0.225613
v -0.119797 2.796610 0.338420
v -0.119797 2.682512 0.225613
v -0.239594 2.682510 0.156338
v 0.097548 0.000000 -0.097548
v 0.137954 0.000000 0.000000
v 0.141003 0.051584 -0.141003
v 0.199408 0.051584 0.000000
v 0.141003 0.281962 -0.141003
v 0.199408 0.281962 0.000000
v 0.116858 0.408655 -0.116858
v 0.165263 0.408655 0.000000
v 0.119276 0.051584 -0.119275
v 0.168681 0.051584 0.000000
v 0.095623 0.408655 -0.095623
v 0.135231 0.408655 0.000000
v 0.095623 0.281962 -0.095623
v 0.135231 0.281962 0.000000
v 0.116858 0.651171 -0.116858
v 0.165263 0.651171 0.000000
v 0.165263 0.555396 0.000000
v 0.116858 0.555396 -0.116858
v 0.095623 0.555396 -0.095623
v 0.095623 0.651171 -0.095623
v 0.135231 0.651171 0.000000
v 0.135231 0.555396 0.000000
v 0.116858 2.682511 -0.116858
v 0.816428 2.809187 -0.451227
v 0.816428 3.894706 -0.451227
v 0.479188 3.894706 -0.451227
v 0.479188 2.809187 -0.451227
v 0.730266 2.809187 -0.451227
v 0.730266 3.894706 -0.451227
v 0.479188 2.782049 -0.473788
v 0.730266 2.782049 -0.473788
v 0.730266 3.921844 -0.473788
v 0.479188 3.921844 -0.473788
v 0.849700 2.809187 -0.451227
v 0.849700 3.894706 -0.451227
v 0.964005 2.809187 -0.451227
v 0.964005 3.894706 -0.451227
v 1.076168 2.878354 -0.393724
v 1.076168 3.825539 -0.393724
v 0.816428 2.839639 -0.425910
v 0.816428 3.864254 -0.425910
v 0.849700 2.839639 -0.425910
v 0.849700 3.864254 -0.425910
v 0.119797 2.823557 -0.338420
v 0.239594 2.682510 -0.156338
v 0.359391 2.823558 -0.156338
v 0.165263 2.682511 0.000000
v 0.119797 2.796610 -0.338420
v 0.119797 2.682512 -0.225613
v 0.359391 2.796611 -0.156338
v 0.000000 0.000000 -0.137954
v -0.097548 0.000000 -0.097548
v -0.137954 0.000000 0.000000
v 0.000000 0.051584 -0.199408
v -0.141003 0.051584 -0.141003
v -0.199408 0.051584 0.000000
v 0.000000 0.281962 -0.199408
v -0.141003 0.281962 -0.141003
v -0.199408 0.281962 0.000000
v 0.000000 0.000000 0.000000
v -0.116858 0.408655 -0.116858
v -0.165263 0.408655 0.000000
v 0.000000 0.408655 -0.165263
v -0.119276 0.051584 -0.119275
v -0.168681 0.051584 0.000000
v 0.000000 0.051584 -0.168681
v 0.000000 0.408655 -0.135231
v -0.095623 0.408655 -0.095623
v -0.135231 0.408655 0.000000
v -0.095623 0.281962 -0.095623
v 0.000000 0.281962 -0.135231
v -0.135231 0.281962 0.000000
v -0.116858 0.651171 -0.116858
v -0.165263 0.651171 0.000000
v 0.000000 0.651171 -0.165263
v -0.165263 0.555396 0.000000
v 0.000000 0.555396 -0.165263
v -0.116858 0.555396 -0.116858
v -0.095623 0.555396 -0.095623
v -0.095623 0.651171 -0.095623
v 0.000000 0.651171 -0.135231
v -0.135231 0.651171 0.000000
v -0.135231 0.555396 0.000000
v 0.000000 0.555396 -0.135231
v -0.116858 2.682511 -0.116858
v -0.816428 2.809187 -0.451227
v -0.816428 3.894706 -0.451227
v -0.479188 3.894706 -0.451227
v -0.479188 2.809187 -0.451227
v -0.730266 2.809187 -0.451227
v -0.730266 3.894706 -0.451227
v -0.479188 2.782049 -0.473788
v -0.730266 2.782049 -0.473788
v -0.730266 3.921844 -0.473788
v -0.479188 3.921844 -0.473788
v -0.849700 2.809187 -0.451227
v -0.849700 3.894706 -0.451227
v -0.964005 2.809187 -0.451227
v -0.964005 3.894706 -0.451227
v -1.076168 2.878354 -0.393724
v -1.076168 3.825539 -0.393724
v -0.816428 2.839639 -0.425910
v -0.816428 3.864254 -0.425910
v -0.849700 2.839639 -0.425910
v -0.849700 3.864254 -0.425910
v -0.119797 2.823559 -0.225613
v -0.119797 2.823557 -0.338420
v -0.359391 2.823558 -0.156338
v 0.000000 2.682511 -0.165263
v -0.165263 2.682511 0.000000
v -0.119797 2.682512 -0.225613
v -0.119797 2.796610 -0.338420
v -0.359391 2.796611 -0.156338
v -0.359391 2.796611 0.156338
v -0.239594 2.682510 -0.156338
v 0.239594 2.823558 0.156338
v -0.239594 2.823558 0.156338
v -0.119797 2.823559 0.225613
v 0.239594 2.823558 -0.156338
v 0.119797 2.823559 -0.225613
v -0.239594 2.823558 -0.156338
vn 0.0000 -1.0000 0.0000
vn 0.3827 0.0000 0.9239
vn 0.9239 0.0000 0.3827
vn 0.0000 1.0000 0.0000
vn 0.3353 -0.4821 0.8094
vn 0.8094 -0.4821 0.3353
vn -1.0000 -0.0000 0.0000
vn 1.0000 0.0000 0.0000
vn 0.0000 0.0000 1.0000
vn 0.4562 0.0000 0.8899
vn 0.5249 -0.8512 0.0000
vn 0.5249 0.8512 0.0000
vn 0.0000 0.0000 -1.0000
vn 0.5006 0.0000 0.8657
vn 0.6897 -0.7241 0.0000
vn -0.3827 0.0000 0.9239
vn -0.9239 0.0000 0.3827
vn -0.3353 -0.4821 0.8094
vn -0.8094 -0.4821 0.3353
vn -0.4562 0.0000 0.8899
vn -0.5249 -0.8512 0.0000
vn -0.5249 0.8512 0.0000
vn -0.5006 0.0000 0.8657
vn 0.0000 -0.7031 0.7111
vn 0.3827 0.0000 -0.9239
vn 0.9239 0.0000 -0.3827
vn 0.3353 -0.4821 -0.8094
vn 0.8094 -0.4821 -0.3353
vn 0.4562 0.0000 -0.8899
vn 0.5006 0.0000 -0.8657
vn 0.0000 -0.7031 -0.7111
vn -0.3827 0.0000 -0.9239
vn -0.9239 0.0000 -0.3827
vn -0.3353 -0.4821 -0.8094
vn -0.8094 -0.4821 -0.3353
vn -0.4562 0.0000 -0.8899
vn -0.5006 0.0000 -0.8657
vn -0.6897 -0.7241 0.0000
usemtl None
s off
f 98//1 92//1 2//1 5//1
f 5//1 2//1 41//1 48//1
f 2//2 3//2 43//2 41//2
f 92//3 94//3 3//3 2//3
f 94//4 102//4 7//4 3//4
f 39//1 148//1 90//1 1//1
f 49//2 52//2 7//2 6//2
f 7//3 102//3 100//3 6//3
f 1//5 5//5 48//5 39//5
f 90//6 98//6 5//6 1//6
f 4//1 46//1 49//1 6//1
f 96//1 4//1 6//1 100//1
f 3//4 7//4 52//4 43//4
f 104//1 8//1 11//1 109//1
f 9//4 105//4 110//4 10//4
f 96//3 105//3 9//3 4//3
f 4//2 9//2 55//2 46//2
f 10//2 11//2 59//2 60//2
f 110//3 109//3 11//3 10//3
f 55//4 9//4 10//4 60//4
f 8//1 54//1 59//1 11//1
f 135//3 12//3 8//3 104//3
f 174//7 62//7 78//7 190//7
f 17//8 18//8 21//8 20//8
f 13//9 14//9 18//9 17//9
f 20//9 21//9 22//9 19//9
f 14//4 113//4 117//4 18//4
f 22//7 121//7 114//7 15//7
f 21//4 120//4 121//4 22//4
f 16//7 19//7 22//7 15//7
f 19//1 118//1 119//1 20//1
f 16//7 115//7 118//7 19//7
f 24//9 23//9 25//9 26//9
f 26//4 125//4 123//4 24//4
f 26//10 25//10 27//10 28//10
f 122//1 124//1 25//1 23//1
f 124//11 126//11 27//11 25//11
f 30//9 29//9 31//9 32//9
f 23//7 24//7 32//7 31//7
f 14//8 13//8 29//8 30//8
f 28//12 127//12 125//12 26//12
f 122//7 23//7 31//7 130//7
f 134//8 35//8 37//8 138//8
f 32//4 131//4 129//4 30//4
f 27//8 126//8 127//8 28//8
f 24//7 123//7 131//7 32//7
f 30//8 129//8 113//8 14//8
f 20//8 119//8 116//8 17//8
f 18//8 117//8 120//8 21//8
f 112//1 13//1 17//1 116//1
f 128//1 130//1 31//1 29//1
f 115//13 177//13 176//13 114//13
f 204//14 33//14 85//14 38//14
f 65//1 177//1 115//1 16//1
f 35//9 204//9 38//9 37//9
f 138//15 37//15 38//15 133//15
f 38//1 85//1 84//1 12//1
f 38//1 12//1 135//1 133//1
f 33//8 34//8 36//8 85//8
f 8//2 12//2 84//2 54//2
f 153//1 47//1 42//1 144//1
f 47//1 48//1 41//1 42//1
f 42//16 41//16 43//16 44//16
f 144//17 42//17 44//17 147//17
f 147//4 44//4 51//4 160//4
f 39//1 40//1 141//1 148//1
f 49//16 50//16 51//16 52//16
f 51//17 50//17 157//17 160//17
f 40//18 39//18 48//18 47//18
f 141//19 40//19 47//19 153//19
f 45//1 50//1 49//1 46//1
f 150//1 157//1 50//1 45//1
f 44//4 43//4 52//4 51//4
f 162//1 170//1 58//1 53//1
f 56//4 57//4 171//4 164//4
f 150//17 45//17 56//17 164//17
f 45//16 46//16 55//16 56//16
f 57//16 60//16 59//16 58//16
f 171//17 57//17 58//17 170//17
f 55//4 60//4 57//4 56//4
f 53//1 58//1 59//1 54//1
f 198//17 162//17 53//17 61//17
f 15//4 114//4 176//4 64//4
f 66//7 69//7 70//7 67//7
f 62//9 66//9 67//9 63//9
f 69//9 68//9 71//9 70//9
f 67//4 179//4 175//4 63//4
f 64//8 176//8 183//8 71//8
f 71//4 183//4 182//4 70//4
f 65//8 64//8 71//8 68//8
f 69//1 181//1 180//1 68//1
f 68//8 180//8 177//8 65//8
f 73//9 75//9 74//9 72//9
f 73//4 185//4 187//4 75//4
f 75//20 77//20 76//20 74//20
f 184//1 72//1 74//1 186//1
f 186//21 74//21 76//21 188//21
f 79//9 81//9 80//9 78//9
f 72//8 80//8 81//8 73//8
f 63//7 79//7 78//7 62//7
f 75//22 187//22 189//22 77//22
f 184//8 192//8 80//8 72//8
f 79//4 191//4 193//4 81//4
f 77//7 189//7 188//7 76//7
f 81//8 193//8 185//8 73//8
f 63//7 175//7 191//7 79//7
f 66//7 178//7 181//7 69//7
f 70//7 182//7 179//7 67//7
f 174//1 178//1 66//1 62//1
f 190//1 78//1 80//1 192//1
f 205//23 88//23 87//23 206//23
f 83//9 202//9 88//9 205//9
f 85//24 36//24 86//24 87//24
f 87//1 61//1 84//1 85//1
f 88//1 198//1 61//1 87//1
f 82//9 86//9 36//9 34//9
f 206//7 87//7 86//7 82//7
f 53//16 54//16 84//16 61//16
f 98//1 97//1 91//1 92//1
f 97//1 154//1 142//1 91//1
f 91//25 142//25 145//25 93//25
f 92//26 91//26 93//26 94//26
f 94//4 93//4 101//4 102//4
f 139//1 89//1 90//1 148//1
f 155//25 99//25 101//25 159//25
f 101//26 99//26 100//26 102//26
f 89//27 139//27 154//27 97//27
f 90//28 89//28 97//28 98//28
f 95//1 99//1 155//1 151//1
f 96//1 100//1 99//1 95//1
f 93//4 145//4 159//4 101//4
f 104//1 109//1 108//1 103//1
f 106//4 107//4 110//4 105//4
f 96//26 95//26 106//26 105//26
f 95//25 151//25 165//25 106//25
f 107//25 172//25 169//25 108//25
f 110//26 107//26 108//26 109//26
f 165//4 172//4 107//4 106//4
f 103//1 108//1 169//1 163//1
f 135//26 104//26 103//26 111//26
f 116//8 119//8 120//8 117//8
f 112//13 116//13 117//13 113//13
f 119//13 118//13 121//13 120//13
f 115//7 114//7 121//7 118//7
f 123//13 125//13 124//13 122//13
f 125//29 127//29 126//29 124//29
f 129//13 131//13 130//13 128//13
f 122//7 130//7 131//7 123//7
f 113//8 129//8 128//8 112//8
f 112//8 128//8 29//8 13//8
f 207//30 133//30 137//30 208//30
f 134//13 138//13 133//13 207//13
f 199//31 200//31 136//31 137//31
f 137//1 111//1 197//1 199//1
f 133//1 135//1 111//1 137//1
f 132//13 136//13 200//13 195//13
f 208//8 137//8 136//8 132//8
f 103//25 163//25 197//25 111//25
f 153//1 144//1 143//1 152//1
f 152//1 143//1 142//1 154//1
f 143//32 146//32 145//32 142//32
f 144//33 147//33 146//33 143//33
f 147//4 160//4 158//4 146//4
f 139//1 148//1 141//1 140//1
f 155//32 159//32 158//32 156//32
f 158//33 160//33 157//33 156//33
f 140//34 152//34 154//34 139//34
f 141//35 153//35 152//35 140//35
f 149//1 151//1 155//1 156//1
f 150//1 149//1 156//1 157//1
f 146//4 158//4 159//4 145//4
f 162//1 161//1 168//1 170//1
f 166//4 164//4 171//4 167//4
f 150//33 164//33 166//33 149//33
f 149//32 166//32 165//32 151//32
f 167//32 168//32 169//32 172//32
f 171//33 170//33 168//33 167//33
f 165//4 166//4 167//4 172//4
f 161//1 163//1 169//1 168//1
f 198//33 173//33 161//33 162//33
f 178//7 179//7 182//7 181//7
f 174//13 175//13 179//13 178//13
f 181//13 182//13 183//13 180//13
f 177//8 180//8 183//8 176//8
f 185//13 184//13 186//13 187//13
f 187//36 186//36 188//36 189//36
f 191//13 190//13 192//13 193//13
f 184//8 185//8 193//8 192//8
f 175//7 174//7 190//7 191//7
f 83//7 196//7 201//7 202//7
f 209//37 194//37 199//37 203//37
f 15//9 64//9 65//9 16//9
f 196//13 209//13 203//13 201//13
f 202//38 201//38 203//38 88//38
f 203//1 199//1 197//1 173//1
f 203//1 173//1 198//1 88//1
f 194//7 195//7 200//7 199//7
f 161//32 173//32 197//32 163//32
