# Blender v2.78 (sub 0) OBJ File: 'hammer_9.blend'
# www.blender.org
mtllib hammer_9.mtl
o hammer_Cube
v 0.071464 0.134637 0.071464
v 0.084853 3.038686 0.084853
v 0.056569 0.858540 0.056569
v 0.042426 0.858540 0.042426
v 0.056569 0.785562 0.056569
v 0.056569 3.038686 0.056569
v 0.062472 0.077022 0.062472
v 0.086359 0.155905 0.086359
v 0.086359 0.184198 0.086359
v 0.042426 0.785562 0.042426
v 0.042426 0.184198 0.042426
v 0.056569 2.882331 0.056569
v 0.042426 2.882331 0.042426
v 0.406656 3.978951 0.138521
v 0.735994 4.140902 0.138521
v 0.573468 4.238557 0.138521
v 0.180000 3.107144 0.127279
v 0.336098 3.909438 0.138521
v 0.180000 3.267723 0.127279
v 0.266585 3.445781 0.138521
v 0.266585 3.945750 0.113710
v 0.379807 3.242296 0.138521
v 0.237443 3.945750 0.113710
v 0.655944 4.218295 0.138521
v 0.558703 2.970193 0.138521
v 0.669955 2.895180 0.138521
v 0.177661 3.919170 0.196463
v 0.177661 3.505563 0.196463
v 0.266585 3.478983 0.113710
v 0.237443 3.478983 0.113710
v 0.529165 4.321021 0.138521
v 0.455597 3.909438 0.138521
v 0.805507 4.170384 0.138521
v 0.690762 4.281321 0.138521
v 0.266585 3.978951 0.138521
v 0.336098 3.452918 0.138521
v 0.317933 3.198351 0.138521
v 0.735994 3.043516 0.138521
v 0.618480 3.006543 0.138521
v 0.671142 2.726934 0.138521
v 0.455597 3.909438 0.104588
v 0.336098 3.452918 0.104588
v 0.618480 3.006543 0.104588
v 0.735994 3.043516 0.104588
v 0.655944 4.218295 0.104588
v 0.573468 4.238557 0.104588
v 0.735994 4.140902 0.104588
v 0.336098 3.909438 0.104588
v 0.379807 3.242296 0.104588
v 0.669955 2.895180 0.104588
v 0.237443 3.978951 0.196463
v 0.237443 3.445781 0.196463
v 0.177661 3.919170 0.150750
v 0.177661 3.505563 0.150750
v 0.114905 3.267724 0.064937
v 0.805507 3.028741 0.138521
v 0.820877 4.281321 0.102387
v 0.659280 4.321021 0.102387
v 0.935622 4.170384 0.102387
v 0.935622 3.028741 0.102387
v 0.801257 2.726934 0.102387
v -0.071464 0.134637 0.071464
v -0.084853 3.038686 0.084853
v -0.056569 0.858540 0.056569
v -0.042426 0.858540 0.042426
v -0.056569 0.785562 0.056569
v -0.056569 3.038686 0.056569
v -0.062472 0.077022 0.062472
v -0.086359 0.155905 0.086359
v -0.086359 0.184198 0.086359
v -0.042426 0.785562 0.042426
v -0.042426 0.184198 0.042426
v -0.056569 2.882331 0.056569
v -0.042426 2.882331 0.042426
v 0.000000 0.134637 0.101065
v 0.000000 3.038686 0.120000
v 0.000000 0.858540 0.080000
v 0.000000 0.858540 0.060000
v 0.000000 0.785562 0.080000
v 0.000000 3.038686 0.080000
v 0.000000 0.077022 0.088349
v 0.000000 0.155905 0.122130
v 0.000000 0.184198 0.122130
v 0.000000 0.785562 0.060000
v 0.000000 0.184198 0.060000
v 0.000000 2.882331 0.080000
v 0.000000 2.882331 0.060000
v -0.406656 3.978951 0.138521
v -0.735994 4.140902 0.138521
v -0.573468 4.238557 0.138521
v -0.180000 3.107144 0.127279
v -0.336098 3.909438 0.138521
v -0.180000 3.267723 0.127279
v -0.266585 3.445781 0.138521
v -0.266585 3.945750 0.113710
v -0.379807 3.242296 0.138521
v -0.237443 3.945750 0.113710
v -0.655944 4.218295 0.138521
v -0.558703 2.970193 0.138521
v -0.669955 2.895180 0.138521
v -0.177661 3.919170 0.196463
v -0.177661 3.505563 0.196463
v -0.266585 3.478983 0.113710
v -0.237443 3.478983 0.113710
v -0.529165 4.321021 0.138521
v -0.455597 3.909438 0.138521
v -0.805507 4.170384 0.138521
v -0.690762 4.281321 0.138521
v -0.266585 3.978951 0.138521
v -0.336098 3.452918 0.138521
v -0.317933 3.198351 0.138521
v -0.735994 3.043516 0.138521
v -0.618480 3.006543 0.138521
v -0.671142 2.726934 0.138521
v -0.455597 3.909438 0.104588
v -0.336098 3.452918 0.104588
v -0.618480 3.006543 0.104588
v -0.735994 3.043516 0.104588
v -0.655944 4.218295 0.104588
v -0.573468 4.238557 0.104588
v -0.735994 4.140902 0.104588
v -0.336098 3.909438 0.104588
v -0.379807 3.242296 0.104588
v -0.669955 2.895180 0.104588
v -0.237443 3.978951 0.196463
v -0.237443 3.445781 0.196463
v -0.177661 3.919170 0.150750
v -0.177661 3.505563 0.150750
v -0.114905 3.267724 0.064937
v -0.805507 3.028741 0.138521
v -0.820877 4.281321 0.102387
v -0.659280 4.321021 0.102387
v -0.935622 4.170384 0.102387
v -0.935622 3.028741 0.102387
v -0.801257 2.726934 0.102387
v 0.071464 0.134637 -0.071464
v 0.084853 3.038686 -0.084853
v 0.056569 0.858540 -0.056569
v 0.042426 0.858540 -0.042426
v 0.056569 0.785562 -0.056569
v 0.056569 3.038686 -0.056569
v 0.062472 0.077022 -0.062472
v 0.086359 0.155905 -0.086359
v 0.086359 0.184198 -0.086359
v 0.042426 0.785562 -0.042426
v 0.042426 0.184198 -0.042426
v 0.056569 2.882331 -0.056569
v 0.042426 2.882331 -0.042426
v 0.120000 3.038686 0.000000
v 0.101065 0.134637 0.000000
v 0.080000 0.858540 0.000000
v 0.060000 0.858540 0.000000
v 0.080000 2.882331 0.000000
v 0.080000 0.785562 0.000000
v 0.080000 3.038686 0.000000
v 0.088349 0.077022 0.000000
v 0.122130 0.155905 0.000000
v 0.122130 0.184198 0.000000
v 0.060000 0.785562 0.000000
v 0.060000 0.184198 0.000000
v 0.060000 2.882331 0.000000
v 0.406656 3.978951 -0.138521
v 0.735994 4.140902 -0.138521
v 0.573468 4.238557 -0.138521
v 0.180000 3.107144 -0.127279
v 0.336098 3.909438 -0.138521
v 0.180000 3.267723 -0.127279
v 0.266585 3.445781 -0.138521
v 0.266585 3.945750 -0.113710
v 0.379807 3.242296 -0.138521
v 0.237443 3.945750 -0.113710
v 0.655944 4.218295 -0.138521
v 0.558703 2.970193 -0.138521
v 0.669955 2.895180 -0.138521
v 0.177661 3.919170 -0.196463
v 0.177661 3.505563 -0.196463
v 0.266585 3.478983 -0.113710
v 0.237443 3.478983 -0.113710
v 0.529165 4.321021 -0.138521
v 0.455597 3.909438 -0.138521
v 0.805507 4.170384 -0.138521
v 0.690762 4.281321 -0.138521
v 0.266585 3.978951 -0.138521
v 0.336098 3.452918 -0.138521
v 0.317933 3.198351 -0.138521
v 0.735994 3.043516 -0.138521
v 0.618480 3.006543 -0.138521
v 0.671142 2.726934 -0.138521
v 0.455597 3.909438 -0.104588
v 0.336098 3.452918 -0.104588
v 0.618480 3.006543 -0.104588
v 0.735994 3.043516 -0.104588
v 0.655944 4.218295 -0.104588
v 0.573468 4.238557 -0.104588
v 0.735994 4.140902 -0.104588
v 0.336098 3.909438 -0.104588
v 0.379807 3.242296 -0.104588
v 0.669955 2.895180 -0.104588
v 0.237443 3.978951 -0.196463
v 0.237443 3.445781 -0.196463
v 0.177661 3.919170 -0.150750
v 0.177661 3.505563 -0.150750
v 0.114905 3.267724 -0.064937
v 0.805507 3.028741 -0.138521
v 0.820877 4.281321 -0.102387
v 0.659280 4.321021 -0.102387
v 0.935622 4.170384 -0.102387
v 0.935622 3.028741 -0.102387
v 0.801257 2.726934 -0.102387
v -0.071464 0.134637 -0.071464
v -0.084853 3.038686 -0.084853
v -0.056569 0.858540 -0.056569
v -0.042426 0.858540 -0.042426
v -0.056569 0.785562 -0.056569
v -0.056569 3.038686 -0.056569
v -0.062472 0.077022 -0.062472
v -0.086359 0.155905 -0.086359
v -0.086359 0.184198 -0.086359
v -0.042426 0.785562 -0.042426
v -0.042426 0.184198 -0.042426
v -0.056569 2.882331 -0.056569
v -0.042426 2.882331 -0.042426
v 0.000000 0.134637 -0.101065
v 0.000000 3.038686 -0.120000
v 0.000000 0.858540 -0.080000
v 0.000000 0.858540 -0.060000
v 0.000000 0.785562 -0.080000
v 0.000000 3.038686 -0.080000
v 0.000000 0.077022 -0.088349
v 0.000000 0.155905 -0.122130
v 0.000000 0.184198 -0.122130
v 0.000000 0.785562 -0.060000
v 0.000000 0.184198 -0.060000
v 0.000000 2.882331 -0.080000
v 0.000000 2.882331 -0.060000
v -0.120000 3.038686 0.000000
v -0.101065 0.134637 0.000000
v -0.080000 0.858540 0.000000
v -0.060000 0.858540 0.000000
v -0.080000 2.882331 0.000000
v -0.080000 0.785562 0.000000
v -0.080000 3.038686 0.000000
v -0.088349 0.077022 0.000000
v -0.122130 0.155905 0.000000
v -0.122130 0.184198 0.000000
v -0.060000 0.785562 0.000000
v -0.060000 0.184198 0.000000
v -0.060000 2.882331 0.000000
v 0.000000 0.000000 0.000000
v -0.406656 3.978951 -0.138521
v -0.735994 4.140902 -0.138521
v -0.573468 4.238557 -0.138521
v -0.180000 3.107144 -0.127279
v -0.336098 3.909438 -0.138521
v -0.180000 3.267723 -0.127279
v -0.266585 3.445781 -0.138521
v -0.266585 3.945750 -0.113710
v -0.379807 3.242296 -0.138521
v -0.237443 3.945750 -0.113710
v -0.655944 4.218295 -0.138521
v -0.558703 2.970193 -0.138521
v -0.669955 2.895180 -0.138521
v -0.177661 3.919170 -0.196463
v -0.177661 3.505563 -0.196463
v -0.266585 3.478983 -0.113710
v -0.237443 3.478983 -0.113710
v -0.529165 4.321021 -0.138521
v -0.455597 3.909438 -0.138521
v -0.805507 4.170384 -0.138521
v -0.690762 4.281321 -0.138521
v -0.266585 3.978951 -0.138521
v -0.336098 3.452918 -0.138521
v -0.317933 3.198351 -0.138521
v -0.735994 3.043516 -0.138521
v -0.618480 3.006543 -0.138521
v -0.671142 2.726934 -0.138521
v -0.455597 3.909438 -0.104588
v -0.336098 3.452918 -0.104588
v -0.618480 3.006543 -0.104588
v -0.735994 3.043516 -0.104588
v -0.655944 4.218295 -0.104588
v -0.573468 4.238557 -0.104588
v -0.735994 4.140902 -0.104588
v -0.336098 3.909438 -0.104588
v -0.379807 3.242296 -0.104588
v -0.669955 2.895180 -0.104588
v -0.237443 3.978951 -0.196463
v -0.237443 3.445781 -0.196463
v -0.177661 3.919170 -0.150750
v -0.177661 3.505563 -0.150750
v -0.114905 3.267724 -0.064937
v -0.805507 3.028741 -0.138521
v -0.820877 4.281321 -0.102387
v -0.659280 4.321021 -0.102387
v -0.935622 4.170384 -0.102387
v -0.935622 3.028741 -0.102387
v -0.801257 2.726934 -0.102387
v 0.114905 3.445781 0.064937
v -0.114905 3.445781 0.064937
v 0.114905 3.445781 -0.064937
v -0.114905 3.445781 -0.064937
v 0.180000 3.214197 0.127279
v 0.180000 3.160671 0.127279
v -0.180000 3.214197 0.127279
v -0.180000 3.160671 0.127279
v 0.180000 3.214197 -0.127279
v 0.180000 3.160671 -0.127279
v -0.180000 3.214197 -0.127279
v -0.180000 3.160671 -0.127279
v 0.149080 3.214197 0.097694
v 0.149080 3.160671 0.097694
v -0.149080 3.214197 0.097694
v -0.149080 3.160671 0.097694
v 0.149080 3.214197 -0.097694
v 0.149080 3.160671 -0.097694
v -0.149080 3.214197 -0.097694
v -0.149080 3.160671 -0.097694
v 0.084853 3.133907 0.084853
v 0.120000 3.133907 0.000000
v 0.000000 3.133907 0.120000
v -0.084853 3.133907 0.084853
v -0.120000 3.133907 0.000000
v 0.084853 3.133907 -0.084853
v 0.000000 3.133907 -0.120000
v -0.084853 3.133907 -0.084853
vn 0.0000 -1.0000 0.0000
vn 0.9239 0.0000 0.3827
vn 0.3827 0.0000 0.9239
vn 0.0000 1.0000 0.0000
vn 0.6816 -0.6751 0.2823
vn 0.2823 -0.6751 0.6816
vn 0.2626 -0.7273 0.6341
vn 0.6341 -0.7273 0.2626
vn 0.3750 -0.1998 0.9053
vn 0.9053 -0.1998 0.3750
vn -0.3827 0.0000 0.9239
vn -0.9136 0.4067 0.0000
vn -0.9414 0.3372 0.0000
vn 0.9077 0.4196 0.0000
vn -0.2386 -0.9711 0.0000
vn -1.0000 0.0000 0.0000
vn 1.0000 0.0000 0.0000
vn 0.0000 0.0000 1.0000
vn -0.6951 -0.7189 0.0000
vn 0.9791 0.2032 0.0000
vn 0.6951 0.7189 0.0000
vn -0.9791 -0.2032 0.0000
vn -0.6878 -0.7259 0.0000
vn 0.2676 0.0000 0.9635
vn 0.7027 0.7114 0.0000
vn 0.9414 -0.3372 0.0000
vn 0.1810 0.7366 0.6517
vn 0.2657 -0.1183 0.9568
vn -0.9077 -0.4196 0.0000
vn 0.9136 -0.4067 0.0000
vn 0.2579 0.2667 0.9286
vn 0.2386 0.9711 0.0000
vn -0.9239 0.0000 0.3827
vn -0.6816 -0.6751 0.2823
vn -0.2823 -0.6751 0.6816
vn -0.2626 -0.7273 0.6341
vn -0.6341 -0.7273 0.2626
vn -0.3750 -0.1998 0.9053
vn -0.9053 -0.1998 0.3750
vn 0.3827 0.0000 -0.9239
vn 0.9136 0.4067 0.0000
vn 0.9414 0.3372 0.0000
vn -0.9077 0.4196 0.0000
vn 0.2386 -0.9711 0.0000
vn 0.6951 -0.7189 0.0000
vn -0.9791 0.2032 0.0000
vn -0.6951 0.7189 0.0000
vn 0.9791 -0.2032 0.0000
vn 0.6878 -0.7259 0.0000
vn -0.2676 0.0000 0.9635
vn -0.7027 0.7114 0.0000
vn -0.9414 -0.3372 0.0000
vn -0.1810 0.7366 0.6517
vn -0.2657 -0.1183 0.9568
vn 0.9077 -0.4196 0.0000
vn -0.9136 -0.4067 0.0000
vn -0.2579 0.2667 0.9286
vn -0.2386 0.9711 0.0000
vn 0.9239 0.0000 -0.3827
vn 0.6816 -0.6751 -0.2823
vn 0.2823 -0.6751 -0.6816
vn 0.2626 -0.7273 -0.6341
vn 0.6341 -0.7273 -0.2626
vn 0.3750 -0.1998 -0.9053
vn 0.9053 -0.1998 -0.3750
vn -0.3827 0.0000 -0.9239
vn 0.0000 0.0000 -1.0000
vn 0.2676 0.0000 -0.9635
vn 0.1810 0.7366 -0.6517
vn 0.2657 -0.1183 -0.9568
vn 0.2579 0.2667 -0.9286
vn -0.9239 0.0000 -0.3827
vn -0.6816 -0.6751 -0.2823
vn -0.2823 -0.6751 -0.6816
vn -0.2626 -0.7273 -0.6341
vn -0.6341 -0.7273 -0.2626
vn -0.3750 -0.1998 -0.9053
vn -0.9053 -0.1998 -0.3750
vn -0.2676 0.0000 -0.9635
vn -0.1810 0.7366 -0.6517
vn -0.2657 -0.1183 -0.9568
vn -0.2579 0.2667 -0.9286
usemtl None
s off
f 155//1 149//1 2//1 6//1
f 6//1 2//1 76//1 80//1
f 154//2 151//2 3//2 5//2
f 5//3 3//3 77//3 79//3
f 3//4 151//4 152//4 4//4
f 77//4 3//4 4//4 78//4
f 12//3 6//3 80//3 86//3
f 154//1 5//1 10//1 159//1
f 153//2 155//2 6//2 12//2
f 5//1 79//1 84//1 10//1
f 158//4 160//4 11//4 9//4
f 150//5 157//5 8//5 1//5
f 1//6 8//6 82//6 75//6
f 249//7 7//7 81//7
f 249//8 156//8 7//8
f 9//4 11//4 85//4 83//4
f 9//3 83//3 82//3 8//3
f 158//2 9//2 8//2 157//2
f 7//9 1//9 75//9 81//9
f 156//10 150//10 1//10 7//10
f 11//3 10//3 84//3 85//3
f 160//2 159//2 10//2 11//2
f 12//1 86//1 87//1 13//1
f 152//2 161//2 13//2 4//2
f 74//11 65//11 78//11 87//11
f 153//1 12//1 13//1 161//1
f 2//2 149//2 319//2 318//2
f 76//3 2//3 318//3 320//3
f 26//12 38//12 44//12 50//12
f 58//4 206//4 179//4 31//4
f 31//13 179//13 162//13 14//13
f 32//1 18//1 48//1 41//1
f 39//14 26//14 50//14 43//14
f 24//15 16//15 46//15 45//15
f 28//16 27//16 53//16 54//16
f 165//17 307//17 303//17 17//17
f 102//18 126//18 52//18 28//18
f 14//4 162//4 183//4 35//4
f 302//17 306//17 167//17 19//17
f 183//16 169//16 21//16 35//16
f 30//1 178//1 177//1 29//1
f 51//17 52//17 30//17 23//17
f 15//19 24//19 45//19 47//19
f 15//18 38//18 56//18 33//18
f 188//1 209//1 61//1 40//1
f 23//17 171//17 199//17 51//17
f 36//20 22//20 49//20 42//20
f 59//21 207//21 205//21 57//21
f 168//22 185//22 37//22 20//22
f 185//23 173//23 25//23 37//23
f 20//16 35//16 21//16 29//16
f 200//17 178//17 30//17 52//17
f 29//18 21//18 23//18 30//18
f 32//18 16//18 31//18 14//18
f 33//24 56//24 60//24 59//24
f 16//18 24//18 34//18 31//18
f 18//18 32//18 14//18 35//18
f 36//18 18//18 35//18 20//18
f 39//18 22//18 37//18 25//18
f 22//18 36//18 20//18 37//18
f 24//18 15//18 33//18 34//18
f 26//18 39//18 25//18 40//18
f 38//18 26//18 40//18 56//18
f 42//18 41//18 48//18
f 18//17 36//17 42//17 48//17
f 22//25 39//25 43//25 49//25
f 16//26 32//26 41//26 46//26
f 54//4 128//4 102//4 28//4
f 27//18 28//18 52//18 51//18
f 51//18 125//18 101//18 27//18
f 101//1 127//1 53//1 27//1
f 128//18 54//18 53//18 127//18
f 109//4 271//4 250//4 88//4
f 19//4 167//4 203//4 55//4
f 55//17 203//17 300//17 298//17
f 31//27 34//27 57//27 58//27
f 60//17 208//17 207//17 59//17
f 56//28 40//28 61//28 60//28
f 97//4 259//4 257//4 95//4
f 186//16 192//16 195//16 163//16
f 94//17 256//17 265//17 103//17
f 173//29 188//29 40//29 25//29
f 209//30 208//30 60//30 61//30
f 34//31 33//31 59//31 57//31
f 57//32 205//32 206//32 58//32
f 242//1 67//1 63//1 236//1
f 67//1 80//1 76//1 63//1
f 241//33 66//33 64//33 238//33
f 66//11 79//11 77//11 64//11
f 64//4 65//4 239//4 238//4
f 77//4 78//4 65//4 64//4
f 73//11 86//11 80//11 67//11
f 241//1 246//1 71//1 66//1
f 240//33 73//33 67//33 242//33
f 66//1 71//1 84//1 79//1
f 245//4 70//4 72//4 247//4
f 237//34 62//34 69//34 244//34
f 62//35 75//35 82//35 69//35
f 249//36 81//36 68//36
f 249//37 68//37 243//37
f 70//4 83//4 85//4 72//4
f 70//11 69//11 82//11 83//11
f 245//33 244//33 69//33 70//33
f 68//38 81//38 75//38 62//38
f 243//39 68//39 62//39 237//39
f 72//11 85//11 84//11 71//11
f 247//33 72//33 71//33 246//33
f 73//1 74//1 87//1 86//1
f 65//33 74//33 248//33 239//33
f 148//40 139//40 226//40 235//40
f 240//1 248//1 74//1 73//1
f 63//33 321//33 322//33 236//33
f 76//11 320//11 321//11 63//11
f 100//41 124//41 118//41 112//41
f 105//4 267//4 294//4 132//4
f 88//42 250//42 267//42 105//42
f 106//1 115//1 122//1 92//1
f 113//43 117//43 124//43 100//43
f 98//44 119//44 120//44 90//44
f 102//17 128//17 127//17 101//17
f 125//4 51//4 199//4 287//4
f 302//18 19//18 93//18 304//18
f 271//17 109//17 95//17 257//17
f 103//1 265//1 266//1 104//1
f 125//16 97//16 104//16 126//16
f 89//45 121//45 119//45 98//45
f 107//18 130//18 112//18 89//18
f 276//1 114//1 135//1 297//1
f 125//16 287//16 259//16 97//16
f 110//46 116//46 123//46 96//46
f 131//47 293//47 295//47 133//47
f 256//48 94//48 111//48 273//48
f 273//49 111//49 99//49 261//49
f 94//17 103//17 95//17 109//17
f 288//16 126//16 104//16 266//16
f 103//18 104//18 97//18 95//18
f 106//18 88//18 105//18 90//18
f 133//50 134//50 130//50 107//50
f 90//18 105//18 108//18 98//18
f 92//18 109//18 88//18 106//18
f 110//18 94//18 109//18 92//18
f 113//18 99//18 111//18 96//18
f 96//18 111//18 94//18 110//18
f 98//18 108//18 107//18 89//18
f 100//18 114//18 99//18 113//18
f 112//18 130//18 114//18 100//18
f 121//18 115//18 120//18 119//18
f 92//16 122//16 116//16 110//16
f 96//51 123//51 117//51 113//51
f 90//52 120//52 115//52 106//52
f 101//18 125//18 126//18 102//18
f 19//4 55//4 129//4 93//4
f 55//18 298//18 299//18 129//18
f 105//53 132//53 131//53 108//53
f 295//16 296//16 134//16 133//16
f 130//54 134//54 135//54 114//54
f 274//17 251//17 283//17 280//17
f 126//1 288//1 200//1 52//1
f 261//55 99//55 114//55 276//55
f 297//56 135//56 134//56 296//56
f 108//57 131//57 133//57 107//57
f 132//58 294//58 293//58 131//58
f 155//1 141//1 137//1 149//1
f 141//1 228//1 224//1 137//1
f 154//59 140//59 138//59 151//59
f 140//40 227//40 225//40 138//40
f 138//4 139//4 152//4 151//4
f 225//4 226//4 139//4 138//4
f 147//40 234//40 228//40 141//40
f 154//1 159//1 145//1 140//1
f 153//59 147//59 141//59 155//59
f 140//1 145//1 232//1 227//1
f 158//4 144//4 146//4 160//4
f 150//60 136//60 143//60 157//60
f 136//61 223//61 230//61 143//61
f 249//62 229//62 142//62
f 249//63 142//63 156//63
f 144//4 231//4 233//4 146//4
f 144//40 143//40 230//40 231//40
f 158//59 157//59 143//59 144//59
f 142//64 229//64 223//64 136//64
f 156//65 142//65 136//65 150//65
f 146//40 233//40 232//40 145//40
f 160//59 146//59 145//59 159//59
f 147//1 148//1 235//1 234//1
f 139//59 148//59 161//59 152//59
f 213//66 222//66 235//66 226//66
f 153//1 161//1 148//1 147//1
f 137//59 323//59 319//59 149//59
f 224//40 324//40 323//40 137//40
f 174//12 198//12 192//12 186//12
f 180//1 189//1 196//1 166//1
f 187//14 191//14 198//14 174//14
f 172//15 193//15 194//15 164//15
f 176//16 202//16 201//16 175//16
f 264//67 176//67 200//67 288//67
f 308//67 255//67 167//67 306//67
f 199//17 171//17 178//17 200//17
f 21//4 169//4 171//4 23//4
f 163//19 195//19 193//19 172//19
f 181//67 204//67 186//67 163//67
f 184//20 190//20 197//20 170//20
f 168//16 177//16 169//16 183//16
f 177//67 178//67 171//67 169//67
f 180//67 162//67 179//67 164//67
f 207//68 208//68 204//68 181//68
f 164//67 179//67 182//67 172//67
f 166//67 183//67 162//67 180//67
f 184//67 168//67 183//67 166//67
f 187//67 173//67 185//67 170//67
f 170//67 185//67 168//67 184//67
f 172//67 182//67 181//67 163//67
f 174//67 188//67 173//67 187//67
f 186//67 204//67 188//67 174//67
f 278//67 277//67 284//67
f 166//17 196//17 190//17 184//17
f 170//25 197//25 191//25 187//25
f 164//26 194//26 189//26 180//26
f 176//4 264//4 290//4 202//4
f 175//67 199//67 200//67 176//67
f 175//67 263//67 287//67 199//67
f 263//1 175//1 201//1 289//1
f 289//67 201//67 202//67 290//67
f 255//4 291//4 203//4 167//4
f 291//67 301//67 300//67 203//67
f 29//16 177//16 168//16 20//16
f 179//69 206//69 205//69 182//69
f 112//17 118//17 121//17 89//17
f 204//70 208//70 209//70 188//70
f 182//71 205//71 207//71 181//71
f 242//1 236//1 211//1 215//1
f 215//1 211//1 224//1 228//1
f 241//72 238//72 212//72 214//72
f 214//66 212//66 225//66 227//66
f 4//3 13//3 87//3 78//3
f 212//4 238//4 239//4 213//4
f 225//4 212//4 213//4 226//4
f 221//66 215//66 228//66 234//66
f 241//1 214//1 219//1 246//1
f 240//72 242//72 215//72 221//72
f 214//1 227//1 232//1 219//1
f 245//4 247//4 220//4 218//4
f 237//73 244//73 217//73 210//73
f 210//74 217//74 230//74 223//74
f 249//75 216//75 229//75
f 249//76 243//76 216//76
f 218//4 220//4 233//4 231//4
f 218//66 231//66 230//66 217//66
f 245//72 218//72 217//72 244//72
f 216//77 210//77 223//77 229//77
f 243//78 237//78 210//78 216//78
f 220//66 219//66 232//66 233//66
f 247//72 246//72 219//72 220//72
f 221//1 234//1 235//1 222//1
f 239//72 248//72 222//72 213//72
f 240//1 221//1 222//1 248//1
f 211//72 236//72 322//72 325//72
f 224//66 211//66 325//66 324//66
f 262//41 274//41 280//41 286//41
f 268//1 254//1 284//1 277//1
f 275//43 262//43 286//43 279//43
f 260//44 252//44 282//44 281//44
f 264//17 263//17 289//17 290//17
f 17//1 91//1 253//1 165//1
f 308//16 304//16 93//16 255//16
f 287//16 288//16 266//16 259//16
f 251//45 260//45 281//45 283//45
f 251//67 274//67 292//67 269//67
f 272//46 258//46 285//46 278//46
f 256//17 271//17 257//17 265//17
f 265//67 257//67 259//67 266//67
f 268//67 252//67 267//67 250//67
f 269//79 292//79 296//79 295//79
f 252//67 260//67 270//67 267//67
f 254//67 268//67 250//67 271//67
f 272//67 254//67 271//67 256//67
f 275//67 258//67 273//67 261//67
f 258//67 272//67 256//67 273//67
f 260//67 251//67 269//67 270//67
f 262//67 275//67 261//67 276//67
f 274//67 262//67 276//67 292//67
f 189//67 191//67 197//67 190//67
f 38//16 15//16 47//16 44//16
f 254//16 272//16 278//16 284//16
f 258//51 275//51 279//51 285//51
f 252//52 268//52 277//52 282//52
f 263//67 264//67 288//67 287//67
f 255//4 93//4 129//4 291//4
f 291//16 129//16 299//16 301//16
f 267//80 270//80 293//80 294//80
f 189//67 194//67 193//67 195//67
f 292//81 276//81 297//81 296//81
f 270//82 269//82 295//82 293//82
f 189//67 195//67 192//67 198//67 191//67
f 196//67 189//67 190//67
f 277//67 283//67 281//67 282//67
f 285//67 279//67 277//67 278//67
f 279//67 286//67 280//67 283//67 277//67
f 115//18 116//18 122//18
f 124//18 117//18 115//18 121//18 118//18
f 117//18 123//18 116//18 115//18
f 41//18 47//18 45//18 46//18
f 49//18 43//18 41//18 42//18
f 43//18 50//18 44//18 47//18 41//18
f 309//67 307//67 165//67 253//67
f 17//18 303//18 305//18 91//18
f 306//1 302//1 310//1 314//1
f 309//4 305//4 313//4 317//4
f 307//4 309//4 317//4 315//4
f 305//4 303//4 311//4 313//4
f 317//16 313//16 312//16 316//16
f 317//67 316//67 314//67 315//67
f 311//18 310//18 312//18 313//18
f 311//17 315//17 314//17 310//17
f 302//1 304//1 312//1 310//1
f 308//1 306//1 314//1 316//1
f 304//1 308//1 316//1 312//1
f 303//4 307//4 315//4 311//4
f 91//16 305//16 309//16 253//16
