# Blender v2.78 (sub 0) OBJ File: 'hammer_5.blend'
# www.blender.org
mtllib hammer_5.mtl
o hammer_Cube
v 0.344257 3.059455 0.236382
v 0.344257 3.665344 0.236382
v 0.435335 3.059455 0.236382
v 0.435335 3.665344 0.236382
v 0.619035 2.890889 0.367911
v 0.619035 3.833910 0.367911
v 0.694985 2.955799 0.303001
v 0.694985 3.769000 0.303001
v 0.694985 3.833910 0.367911
v 0.694985 2.890889 0.367911
v 0.743149 3.015934 0.303001
v 0.743149 3.708865 0.303001
v 0.226936 3.107144 0.199171
v 0.226936 3.617655 0.199171
v 0.171045 3.163035 0.199171
v 0.171045 3.561764 0.199171
v 0.171045 3.163035 0.172333
v 0.171045 3.561764 0.172333
v 0.132079 3.202001 0.172333
v 0.132079 3.522798 0.172333
v 0.132079 3.522798 0.185347
v 0.132079 3.202001 0.185347
v 0.090197 3.476035 0.199171
v 0.090197 3.248764 0.199171
v 0.071464 0.134637 0.071464
v 0.084853 3.038686 0.084853
v 0.056569 1.959839 0.056569
v 0.056569 0.979919 0.056569
v 0.042426 1.959839 0.042426
v 0.042426 0.979919 0.042426
v 0.056569 2.037565 0.056569
v 0.056569 0.906942 0.056569
v 0.056569 2.967702 0.056569
v 0.062472 0.077022 0.062472
v 0.086359 0.155905 0.086359
v 0.086359 0.184198 0.086359
v 0.042426 0.906942 0.042426
v 0.042426 0.226736 0.042426
v 0.056569 2.882331 0.056569
v 0.042426 2.882331 0.042426
v 0.042426 2.037565 0.042426
v 0.084853 3.112869 0.084853
v -0.344257 3.059455 0.236382
v -0.344257 3.665344 0.236382
v -0.435335 3.059455 0.236382
v -0.435335 3.665344 0.236382
v -0.619035 2.890889 0.367911
v -0.619035 3.833910 0.367911
v -0.694985 2.955799 0.303001
v -0.694985 3.769000 0.303001
v -0.694985 3.833910 0.367911
v -0.694985 2.890889 0.367911
v -0.743149 3.015934 0.303001
v -0.743149 3.708865 0.303001
v -0.226936 3.107144 0.199171
v -0.226936 3.617655 0.199171
v -0.171045 3.163035 0.199171
v -0.171045 3.561764 0.199171
v -0.171045 3.163035 0.172333
v -0.171045 3.561764 0.172333
v -0.132079 3.202001 0.172333
v -0.132079 3.522798 0.172333
v -0.132079 3.522798 0.185347
v -0.132079 3.202001 0.185347
v -0.090197 3.476035 0.199171
v -0.090197 3.248764 0.199171
v 0.000000 0.134637 0.101065
v -0.071464 0.134637 0.071464
v -0.084853 3.038686 0.084853
v 0.000000 3.038686 0.120000
v -0.056569 1.959839 0.056569
v 0.000000 1.959839 0.080000
v -0.056569 0.979919 0.056569
v 0.000000 0.979919 0.080000
v 0.000000 1.959839 0.060000
v -0.042426 1.959839 0.042426
v -0.042426 0.979919 0.042426
v 0.000000 0.979919 0.060000
v -0.056569 2.037565 0.056569
v -0.056569 0.906942 0.056569
v 0.000000 0.906942 0.080000
v 0.000000 2.967702 0.080000
v -0.056569 2.967702 0.056569
v -0.062472 0.077022 0.062472
v 0.000000 0.077022 0.088349
v -0.086359 0.155905 0.086359
v -0.086359 0.184198 0.086359
v 0.000000 0.155905 0.122130
v 0.000000 0.184198 0.122130
v 0.000000 0.906942 0.060000
v -0.042426 0.906942 0.042426
v -0.042426 0.226736 0.042426
v 0.000000 0.226736 0.060000
v -0.056569 2.882331 0.056569
v 0.000000 2.882331 0.080000
v 0.000000 2.037565 0.080000
v -0.042426 2.882331 0.042426
v -0.042426 2.037565 0.042426
v 0.000000 2.882331 0.060000
v 0.000000 2.037565 0.060000
v -0.084853 3.112869 0.084853
v 0.344257 3.059455 -0.236382
v 0.344257 3.665344 -0.236382
v 0.435335 3.059455 -0.236382
v 0.435335 3.665344 -0.236382
v 0.619035 2.890889 -0.367911
v 0.619035 3.833910 -0.367911
v 0.694985 2.955799 -0.303001
v 0.694985 3.769000 -0.303001
v 0.694985 3.833910 -0.367911
v 0.694985 2.890889 -0.367911
v 0.743149 3.015934 -0.303001
v 0.743149 3.708865 -0.303001
v 0.226936 3.107144 -0.199171
v 0.226936 3.617655 -0.199171
v 0.171045 3.163035 -0.199171
v 0.171045 3.561764 -0.199171
v 0.171045 3.163035 -0.172333
v 0.171045 3.561764 -0.172333
v 0.132079 3.202001 -0.172333
v 0.132079 3.522798 -0.172333
v 0.132079 3.522798 -0.185347
v 0.132079 3.202001 -0.185347
v 0.090197 3.476035 -0.199171
v 0.090197 3.248764 -0.199171
v 0.120000 3.038686 0.000000
v 0.071464 0.134637 -0.071464
v 0.084853 3.038686 -0.084853
v 0.101065 0.134637 0.000000
v 0.080000 1.959839 0.000000
v 0.056569 1.959839 -0.056569
v 0.080000 0.979919 0.000000
v 0.056569 0.979919 -0.056569
v 0.042426 1.959839 -0.042426
v 0.060000 1.959839 0.000000
v 0.060000 0.979919 0.000000
v 0.042426 0.979919 -0.042426
v 0.080000 2.882331 0.000000
v 0.080000 2.037565 0.000000
v 0.056569 2.037565 -0.056569
v 0.080000 0.906942 0.000000
v 0.056569 0.906942 -0.056569
v 0.056569 2.967702 -0.056569
v 0.080000 2.967702 0.000000
v 0.088349 0.077022 0.000000
v 0.062472 0.077022 -0.062472
v 0.122130 0.155905 0.000000
v 0.122130 0.184198 0.000000
v 0.086359 0.155905 -0.086359
v 0.086359 0.184198 -0.086359
v 0.042426 0.906942 -0.042426
v 0.060000 0.906942 0.000000
v 0.060000 0.226736 0.000000
v 0.042426 0.226736 -0.042426
v 0.056569 2.882331 -0.056569
v 0.060000 2.882331 0.000000
v 0.060000 2.037565 0.000000
v 0.042426 2.882331 -0.042426
v 0.042426 2.037565 -0.042426
v 0.120000 3.112869 0.000000
v 0.084853 3.112869 -0.084853
v -0.344257 3.059455 -0.236382
v -0.344257 3.665344 -0.236382
v -0.435335 3.059455 -0.236382
v -0.435335 3.665344 -0.236382
v -0.619035 2.890889 -0.367911
v -0.619035 3.833910 -0.367911
v -0.694985 2.955799 -0.303001
v -0.694985 3.769000 -0.303001
v -0.694985 3.833910 -0.367911
v -0.694985 2.890889 -0.367911
v -0.743149 3.015934 -0.303001
v -0.743149 3.708865 -0.303001
v -0.226936 3.107144 -0.199171
v -0.226936 3.617655 -0.199171
v -0.171045 3.163035 -0.199171
v -0.171045 3.561764 -0.199171
v -0.171045 3.163035 -0.172333
v -0.171045 3.561764 -0.172333
v -0.132079 3.202001 -0.172333
v -0.132079 3.522798 -0.172333
v -0.132079 3.522798 -0.185347
v -0.132079 3.202001 -0.185347
v -0.090197 3.476035 -0.199171
v -0.090197 3.248764 -0.199171
v 0.000000 0.000000 0.000000
v 0.000000 0.134637 -0.101065
v -0.120000 3.038686 0.000000
v -0.071464 0.134637 -0.071464
v -0.084853 3.038686 -0.084853
v -0.101065 0.134637 0.000000
v 0.000000 3.038686 -0.120000
v -0.080000 1.959839 0.000000
v -0.056569 1.959839 -0.056569
v 0.000000 1.959839 -0.080000
v -0.080000 0.979919 0.000000
v -0.056569 0.979919 -0.056569
v 0.000000 0.979919 -0.080000
v 0.000000 1.959839 -0.060000
v -0.042426 1.959839 -0.042426
v -0.060000 1.959839 0.000000
v -0.060000 0.979919 0.000000
v -0.042426 0.979919 -0.042426
v 0.000000 0.979919 -0.060000
v -0.080000 2.882331 0.000000
v -0.080000 2.037565 0.000000
v -0.056569 2.037565 -0.056569
v -0.080000 0.906942 0.000000
v -0.056569 0.906942 -0.056569
v 0.000000 0.906942 -0.080000
v 0.000000 2.967702 -0.080000
v -0.056569 2.967702 -0.056569
v -0.080000 2.967702 0.000000
v -0.088349 0.077022 0.000000
v -0.062472 0.077022 -0.062472
v 0.000000 0.077022 -0.088349
v -0.122130 0.155905 0.000000
v -0.122130 0.184198 0.000000
v -0.086359 0.155905 -0.086359
v -0.086359 0.184198 -0.086359
v 0.000000 0.155905 -0.122130
v 0.000000 0.184198 -0.122130
v 0.000000 0.906942 -0.060000
v -0.042426 0.906942 -0.042426
v -0.060000 0.906942 0.000000
v -0.060000 0.226736 0.000000
v -0.042426 0.226736 -0.042426
v 0.000000 0.226736 -0.060000
v -0.056569 2.882331 -0.056569
v 0.000000 2.882331 -0.080000
v 0.000000 2.037565 -0.080000
v -0.060000 2.882331 0.000000
v -0.060000 2.037565 0.000000
v -0.042426 2.882331 -0.042426
v -0.042426 2.037565 -0.042426
v 0.000000 2.882331 -0.060000
v 0.000000 2.037565 -0.060000
v -0.120000 3.112869 0.000000
v -0.084853 3.112869 -0.084853
v 0.000000 3.112869 0.120000
v 0.000000 3.112869 -0.120000
vn -0.3766 -0.9264 0.0000
vn 0.0000 0.0000 -1.0000
vn -0.3766 0.9264 0.0000
vn 0.0000 1.0000 0.0000
vn -0.3023 0.0000 0.9532
vn 0.0000 0.0000 1.0000
vn -0.5822 0.0000 0.8131
vn -0.6761 -0.7368 0.0000
vn 1.0000 -0.0000 0.0000
vn -0.7805 0.6251 0.0000
vn 0.7805 -0.6251 0.0000
vn 0.0000 -1.0000 0.0000
vn -1.0000 0.0000 0.0000
vn -0.6761 0.7368 0.0000
vn 0.3134 0.0000 0.9496
vn 0.0000 0.2835 0.9590
vn 0.8195 -0.4618 0.3394
vn 0.3394 -0.4618 0.8195
vn 0.9239 0.0000 0.3827
vn 0.3827 0.0000 0.9239
vn 0.5501 0.8034 0.2278
vn 0.6816 -0.6751 0.2823
vn 0.2823 -0.6751 0.6816
vn 0.2626 -0.7273 0.6341
vn 0.6341 -0.7273 0.2626
vn 0.2278 0.8034 0.5501
vn 0.3750 -0.1998 0.9053
vn 0.9053 -0.1998 0.3750
vn 0.0000 -0.2835 0.9590
vn 0.3766 -0.9264 0.0000
vn 0.3766 0.9264 0.0000
vn 0.3023 0.0000 0.9532
vn 0.5822 0.0000 0.8131
vn 0.6761 -0.7368 0.0000
vn -0.7805 -0.6251 0.0000
vn 0.6761 0.7368 0.0000
vn -0.3134 0.0000 0.9496
vn -0.8195 -0.4618 0.3394
vn -0.3394 -0.4618 0.8195
vn -0.9239 0.0000 0.3827
vn -0.3827 0.0000 0.9239
vn -0.5501 0.8034 0.2278
vn -0.6816 -0.6751 0.2823
vn -0.2823 -0.6751 0.6816
vn -0.2626 -0.7273 0.6341
vn -0.6341 -0.7273 0.2626
vn -0.2278 0.8034 0.5501
vn -0.3750 -0.1998 0.9053
vn -0.9053 -0.1998 0.3750
vn -0.3023 0.0000 -0.9532
vn -0.5822 0.0000 -0.8131
vn 0.3134 0.0000 -0.9496
vn 0.0000 0.2835 -0.9590
vn 0.8195 -0.4618 -0.3394
vn 0.3394 -0.4618 -0.8195
vn 0.9239 0.0000 -0.3827
vn 0.3827 0.0000 -0.9239
vn 0.5501 0.8034 -0.2278
vn 0.6816 -0.6751 -0.2823
vn 0.2823 -0.6751 -0.6816
vn 0.2626 -0.7273 -0.6341
vn 0.6341 -0.7273 -0.2626
vn 0.2278 0.8034 -0.5501
vn 0.3750 -0.1998 -0.9053
vn 0.9053 -0.1998 -0.3750
vn 0.0000 -0.2835 -0.9590
vn 0.3023 0.0000 -0.9532
vn 0.5822 0.0000 -0.8131
vn -0.3134 0.0000 -0.9496
vn -0.8195 -0.4618 -0.3394
vn -0.3394 -0.4618 -0.8195
vn -0.9239 0.0000 -0.3827
vn -0.3827 0.0000 -0.9239
vn -0.5501 0.8034 -0.2278
vn -0.6816 -0.6751 -0.2823
vn -0.2823 -0.6751 -0.6816
vn -0.2626 -0.7273 -0.6341
vn -0.6341 -0.7273 -0.2626
vn -0.2278 0.8034 -0.5501
vn -0.3750 -0.1998 -0.9053
vn -0.9053 -0.1998 -0.3750
vn 0.7805 0.6251 0.0000
usemtl None
s off
f 114//1 102//1 1//1 13//1
f 176//2 116//2 114//2 174//2
f 2//3 103//3 115//3 14//3
f 4//4 105//4 103//4 2//4
f 14//5 13//5 1//5 2//5
f 2//6 1//6 3//6 4//6
f 4//7 3//7 5//7 6//7
f 104//8 106//8 5//8 3//8
f 6//6 5//6 10//6 9//6
f 109//9 110//9 9//9 8//9
f 7//9 8//9 9//9 10//9
f 50//10 169//10 173//10 54//10
f 108//11 112//11 11//11 7//11
f 14//6 56//6 58//6 16//6
f 20//4 62//4 63//4 21//4
f 8//6 7//6 11//6 12//6
f 16//6 15//6 13//6 14//6
f 61//6 59//6 17//6 19//6
f 18//6 60//6 62//6 20//6
f 64//12 61//12 19//12 22//12
f 15//13 16//13 18//13 17//13
f 58//12 60//12 18//12 16//12
f 23//6 65//6 66//6 24//6
f 17//4 59//4 57//4 15//4
f 10//9 111//9 108//9 7//9
f 9//4 110//4 107//4 6//4
f 106//12 111//12 10//12 5//12
f 102//12 104//12 3//12 1//12
f 6//14 107//14 105//14 4//14
f 11//9 112//9 113//9 12//9
f 22//9 19//9 20//9 21//9
f 23//15 24//15 22//15 21//15
f 20//6 19//6 17//6 18//6
f 21//16 63//16 65//16 23//16
f 144//17 126//17 26//17 33//17
f 33//18 26//18 70//18 82//18
f 141//19 132//19 28//19 32//19
f 32//20 28//20 74//20 81//20
f 30//20 29//20 75//20 78//20
f 136//19 135//19 29//19 30//19
f 28//4 132//4 136//4 30//4
f 74//4 28//4 30//4 78//4
f 27//12 72//12 75//12 29//12
f 130//12 27//12 29//12 135//12
f 27//20 31//20 96//20 72//20
f 130//19 139//19 31//19 27//19
f 39//20 33//20 82//20 95//20
f 141//12 32//12 37//12 152//12
f 138//19 144//19 33//19 39//19
f 32//12 81//12 90//12 37//12
f 148//21 153//21 38//21 36//21
f 129//22 147//22 35//22 25//22
f 25//23 35//23 88//23 67//23
f 186//24 34//24 85//24
f 186//25 145//25 34//25
f 36//26 38//26 93//26 89//26
f 36//20 89//20 88//20 35//20
f 148//19 36//19 35//19 147//19
f 34//27 25//27 67//27 85//27
f 145//28 129//28 25//28 34//28
f 38//20 37//20 90//20 93//20
f 153//19 152//19 37//19 38//19
f 31//4 139//4 157//4 41//4
f 39//12 95//12 99//12 40//12
f 96//4 31//4 41//4 100//4
f 115//4 175//4 56//4 14//4
f 41//20 40//20 99//20 100//20
f 157//19 156//19 40//19 41//19
f 138//12 39//12 40//12 156//12
f 26//19 126//19 160//19 42//19
f 70//20 26//20 42//20 240//20
f 13//12 55//12 174//12 114//12
f 64//29 22//29 24//29 66//29
f 174//30 55//30 43//30 162//30
f 56//31 175//31 163//31 44//31
f 44//4 163//4 165//4 46//4
f 56//32 44//32 43//32 55//32
f 44//6 46//6 45//6 43//6
f 46//33 48//33 47//33 45//33
f 164//34 45//34 47//34 166//34
f 48//6 51//6 52//6 47//6
f 169//13 50//13 51//13 170//13
f 49//13 52//13 51//13 50//13
f 168//35 49//35 53//35 172//35
f 50//6 54//6 53//6 49//6
f 58//6 56//6 55//6 57//6
f 57//9 59//9 60//9 58//9
f 49//13 168//13 171//13 52//13
f 48//4 167//4 170//4 51//4
f 166//12 47//12 52//12 171//12
f 162//12 43//12 45//12 164//12
f 46//36 165//36 167//36 48//36
f 54//13 173//13 172//13 53//13
f 64//13 63//13 62//13 61//13
f 65//37 63//37 64//37 66//37
f 62//6 60//6 59//6 61//6
f 213//38 83//38 69//38 188//38
f 83//39 82//39 70//39 69//39
f 208//40 80//40 73//40 196//40
f 80//41 81//41 74//41 73//41
f 77//41 78//41 75//41 76//41
f 202//40 77//40 76//40 201//40
f 73//4 77//4 202//4 196//4
f 74//4 78//4 77//4 73//4
f 71//12 76//12 75//12 72//12
f 193//12 201//12 76//12 71//12
f 71//41 72//41 96//41 79//41
f 193//40 71//40 79//40 206//40
f 94//41 95//41 82//41 83//41
f 208//12 225//12 91//12 80//12
f 205//40 94//40 83//40 213//40
f 80//12 91//12 90//12 81//12
f 218//42 87//42 92//42 226//42
f 191//43 68//43 86//43 217//43
f 68//44 67//44 88//44 86//44
f 186//45 85//45 84//45
f 186//46 84//46 214//46
f 87//47 89//47 93//47 92//47
f 87//41 86//41 88//41 89//41
f 218//40 217//40 86//40 87//40
f 84//48 85//48 67//48 68//48
f 214//49 84//49 68//49 191//49
f 92//41 93//41 90//41 91//41
f 226//40 92//40 91//40 225//40
f 79//4 98//4 233//4 206//4
f 94//12 97//12 99//12 95//12
f 96//4 100//4 98//4 79//4
f 98//41 100//41 99//41 97//41
f 233//40 98//40 97//40 232//40
f 205//12 232//12 97//12 94//12
f 69//40 101//40 238//40 188//40
f 70//41 240//41 101//41 69//41
f 57//6 55//6 13//6 15//6
f 115//50 103//50 102//50 114//50
f 103//2 105//2 104//2 102//2
f 105//51 107//51 106//51 104//51
f 107//2 110//2 111//2 106//2
f 108//9 111//9 110//9 109//9
f 117//2 177//2 175//2 115//2
f 122//4 182//4 181//4 121//4
f 109//2 113//2 112//2 108//2
f 117//2 115//2 114//2 116//2
f 180//2 120//2 118//2 178//2
f 121//2 181//2 179//2 119//2
f 183//12 123//12 120//12 180//12
f 116//13 118//13 119//13 117//13
f 177//12 117//12 119//12 179//12
f 125//2 185//2 184//2 124//2
f 116//4 176//4 178//4 118//4
f 123//9 122//9 121//9 120//9
f 124//52 122//52 123//52 125//52
f 121//2 119//2 118//2 120//2
f 124//53 184//53 182//53 122//53
f 144//54 143//54 128//54 126//54
f 143//55 211//55 192//55 128//55
f 141//56 142//56 133//56 132//56
f 142//57 210//57 198//57 133//57
f 137//57 204//57 199//57 134//57
f 136//56 137//56 134//56 135//56
f 133//4 137//4 136//4 132//4
f 198//4 204//4 137//4 133//4
f 131//12 134//12 199//12 195//12
f 130//12 135//12 134//12 131//12
f 131//57 195//57 231//57 140//57
f 130//56 131//56 140//56 139//56
f 155//57 230//57 211//57 143//57
f 141//12 152//12 151//12 142//12
f 138//56 155//56 143//56 144//56
f 142//12 151//12 223//12 210//12
f 148//58 150//58 154//58 153//58
f 129//59 127//59 149//59 147//59
f 127//60 187//60 221//60 149//60
f 186//61 216//61 146//61
f 186//62 146//62 145//62
f 150//63 222//63 228//63 154//63
f 150//57 149//57 221//57 222//57
f 148//56 147//56 149//56 150//56
f 146//64 216//64 187//64 127//64
f 145//65 146//65 127//65 129//65
f 154//57 228//57 223//57 151//57
f 153//56 154//56 151//56 152//56
f 140//4 159//4 157//4 139//4
f 155//12 158//12 236//12 230//12
f 231//4 237//4 159//4 140//4
f 159//57 237//57 236//57 158//57
f 157//56 159//56 158//56 156//56
f 138//12 156//12 158//12 155//12
f 128//56 161//56 160//56 126//56
f 192//57 241//57 161//57 128//57
f 183//66 185//66 125//66 123//66
f 175//67 174//67 162//67 163//67
f 163//2 162//2 164//2 165//2
f 165//68 164//68 166//68 167//68
f 167//2 166//2 171//2 170//2
f 168//13 169//13 170//13 171//13
f 169//2 168//2 172//2 173//2
f 177//2 176//2 174//2 175//2
f 176//9 177//9 179//9 178//9
f 183//13 180//13 181//13 182//13
f 184//69 185//69 183//69 182//69
f 181//2 180//2 178//2 179//2
f 213//70 188//70 190//70 212//70
f 212//71 190//71 192//71 211//71
f 208//72 196//72 197//72 209//72
f 209//73 197//73 198//73 210//73
f 203//73 200//73 199//73 204//73
f 202//72 201//72 200//72 203//72
f 197//4 196//4 202//4 203//4
f 198//4 197//4 203//4 204//4
f 194//12 195//12 199//12 200//12
f 193//12 194//12 200//12 201//12
f 194//73 207//73 231//73 195//73
f 193//72 206//72 207//72 194//72
f 229//73 212//73 211//73 230//73
f 208//12 209//12 224//12 225//12
f 205//72 213//72 212//72 229//72
f 209//12 210//12 223//12 224//12
f 218//74 226//74 227//74 220//74
f 191//75 217//75 219//75 189//75
f 189//76 219//76 221//76 187//76
f 186//77 215//77 216//77
f 186//78 214//78 215//78
f 220//79 227//79 228//79 222//79
f 220//73 222//73 221//73 219//73
f 218//72 220//72 219//72 217//72
f 215//80 189//80 187//80 216//80
f 214//81 191//81 189//81 215//81
f 227//73 224//73 223//73 228//73
f 226//72 225//72 224//72 227//72
f 207//4 206//4 233//4 235//4
f 229//12 230//12 236//12 234//12
f 231//4 207//4 235//4 237//4
f 235//73 234//73 236//73 237//73
f 233//72 232//72 234//72 235//72
f 205//12 229//12 234//12 232//12
f 190//72 188//72 238//72 239//72
f 192//73 190//73 239//73 241//73
f 12//82 113//82 109//82 8//82
